<svg width="478" height="60" viewBox="0 0 478 60" fill="none" xmlns="http://www.w3.org/2000/svg">
<path fill-rule="evenodd" clip-rule="evenodd" d="M470.479 59.9998H263.521C259.376 59.9998 256 56.6182 256 52.4998V7.49976C256 3.36634 259.376 -0.000244141 263.521 -0.000244141H470.479C474.62 -0.000244141 478 3.36634 478 7.49976V52.4998C478 56.6182 474.62 59.9998 470.479 59.9998Z" fill="black"/>
<path d="M373.06 20.9998C371.842 20.9998 370.816 20.559 370.004 19.6912C369.199 18.8478 368.75 17.6851 368.77 16.498C368.77 15.2311 369.186 14.1586 370.004 13.3083C370.813 12.4406 371.839 11.9998 373.056 11.9998C374.261 11.9998 375.287 12.4406 376.112 13.3083C376.93 14.1864 377.346 15.2589 377.346 16.498C377.333 17.7684 376.917 18.8409 376.112 19.6878C375.304 20.5624 374.277 20.9998 373.06 20.9998ZM336.833 20.9998C335.643 20.9998 334.61 20.5659 333.764 19.7086C332.926 18.8548 332.5 17.7753 332.5 16.5015C332.5 15.2277 332.926 14.1482 333.764 13.2944C334.593 12.4371 335.626 12.0032 336.833 12.0032C337.424 12.0032 337.997 12.1247 338.547 12.3711C339.087 12.6106 339.527 12.9369 339.852 13.336L339.932 13.4367L339.024 14.36L338.93 14.2454C338.416 13.6137 337.729 13.3048 336.82 13.3048C336.008 13.3048 335.301 13.6033 334.717 14.1934C334.13 14.7869 333.832 15.5644 333.832 16.505C333.832 17.4456 334.13 18.2231 334.717 18.8166C335.301 19.4066 336.008 19.7051 336.82 19.7051C337.685 19.7051 338.413 19.4066 338.98 18.8166C339.315 18.4695 339.523 17.9836 339.597 17.3692H336.682V16.0711H340.848L340.865 16.1891C340.895 16.4078 340.925 16.6334 340.925 16.8416C340.925 18.0391 340.576 19.0075 339.885 19.7225C339.101 20.5694 338.074 20.9998 336.833 20.9998ZM385 20.8158H383.715L379.781 14.301L379.815 15.4741V20.8123H378.53V12.1872H379.996L380.036 12.2531L383.736 18.3897L383.702 17.22V12.1872H385V20.8158ZM363.407 20.8158H362.106V13.4853H359.848V12.1872H365.661V13.4853H363.404V20.8158H363.407ZM358.789 20.8158H357.491V12.1872H358.789V20.8158ZM351.494 20.8158H350.196V13.4853H347.938V12.1872H353.751V13.4853H351.494V20.8158ZM347.117 20.8019H342.139V12.1872H347.117V13.4853H343.441V15.8524H346.758V17.1367H343.441V19.5038H347.117V20.8019ZM370.957 18.7992C371.537 19.3997 372.241 19.7016 373.06 19.7016C373.902 19.7016 374.589 19.4066 375.163 18.7992C375.733 18.2092 376.021 17.4352 376.021 16.5015C376.021 15.5678 375.733 14.7903 375.166 14.2038C374.586 13.6033 373.878 13.3013 373.063 13.3013C372.221 13.3013 371.534 13.5964 370.964 14.2038C370.393 14.7938 370.105 15.5678 370.105 16.5015C370.105 17.4352 370.39 18.2126 370.957 18.7992Z" fill="#FEFEFE"/>
<path fill-rule="evenodd" clip-rule="evenodd" d="M368.432 31.7382C365.304 31.7382 362.768 34.0999 362.768 37.3575C362.768 40.5854 365.32 42.9767 368.432 42.9767C371.56 42.9767 374.096 40.5986 374.096 37.3575C374.096 34.0999 371.56 31.7382 368.432 31.7382ZM368.432 40.7501C366.72 40.7501 365.247 39.3403 365.247 37.3443C365.247 35.3186 366.724 33.9385 368.432 33.9385C370.143 33.9385 371.617 35.3186 371.617 37.3443C371.62 39.3535 370.143 40.7501 368.432 40.7501ZM356.074 31.7382C352.946 31.7382 350.41 34.0999 350.41 37.3575C350.41 40.5854 352.962 42.9767 356.074 42.9767C359.202 42.9767 361.738 40.5986 361.738 37.3575C361.738 34.0999 359.199 31.7382 356.074 31.7382ZM356.074 40.7501C354.362 40.7501 352.889 39.3403 352.889 37.3443C352.889 35.3186 354.366 33.9385 356.074 33.9385C357.785 33.9385 359.259 35.3186 359.259 37.3443C359.259 39.3535 357.785 40.7501 356.074 40.7501ZM341.369 33.4543V35.8324H347.106C346.93 37.1664 346.487 38.1513 345.808 38.8265C344.967 39.6631 343.67 40.5722 341.382 40.5722C337.856 40.5722 335.099 37.7395 335.099 34.2316C335.099 30.7237 337.856 27.8911 341.382 27.8911C343.286 27.8911 344.673 28.6388 345.702 29.594L347.397 27.9075C345.967 26.5439 344.064 25.4998 341.395 25.4998C336.559 25.4998 332.5 29.4194 332.5 34.2185C332.5 39.0307 336.555 42.9372 341.395 42.9372C344.007 42.9372 345.967 42.0874 347.516 40.4866C349.095 38.9154 349.595 36.6987 349.595 34.9102C349.595 34.3535 349.552 33.8529 349.463 33.428H341.365C341.369 33.4247 341.369 33.4543 341.369 33.4543ZM401.517 35.3054C401.043 34.0439 399.613 31.7251 396.68 31.7251C393.774 31.7251 391.357 34.0011 391.357 37.3443C391.357 40.4998 393.747 42.9635 396.962 42.9635C399.544 42.9635 401.047 41.3924 401.666 40.4701L399.749 39.1921C399.113 40.1308 398.23 40.7468 396.975 40.7468C395.707 40.7468 394.82 40.1737 394.23 39.0439L401.782 35.9312C401.782 35.9345 401.517 35.3054 401.517 35.3054ZM393.817 37.1829C393.757 35.0123 395.512 33.9088 396.766 33.9088C397.756 33.9088 398.58 34.393 398.862 35.0979L393.817 37.1829ZM387.682 42.6276H390.162V26.119H387.682V42.6276ZM383.61 32.9866H383.521C382.962 32.3245 381.899 31.7251 380.542 31.7251C377.724 31.7251 375.129 34.1921 375.129 37.3608C375.129 40.5162 377.711 42.9536 380.542 42.9536C381.882 42.9536 382.962 42.3509 383.521 41.6756H383.61V42.4826C383.61 44.6269 382.458 45.783 380.601 45.783C379.082 45.783 378.138 44.6961 377.754 43.787L375.599 44.6829C376.218 46.1651 377.87 47.9998 380.598 47.9998C383.505 47.9998 385.968 46.2969 385.968 42.1434V32.061H383.624V32.9866C383.627 32.9866 383.61 32.9866 383.61 32.9866ZM380.763 40.7501C379.052 40.7501 377.622 39.3272 377.622 37.3608C377.622 35.3779 379.052 33.9418 380.763 33.9418C382.458 33.9418 383.773 35.3944 383.773 37.3608C383.789 39.3272 382.462 40.7501 380.763 40.7501ZM413.127 26.119H407.198V42.6276H409.677V36.3759H413.13C415.874 36.3759 418.572 34.3963 418.572 31.254C418.572 28.1117 415.884 26.119 413.127 26.119ZM413.2 34.0702H409.674V28.4049H413.2C415.057 28.4049 416.106 29.9299 416.106 31.2376C416.106 32.532 415.043 34.0702 413.2 34.0702ZM428.511 31.7086C426.71 31.7086 424.852 32.5024 424.084 34.2316L426.283 35.1407C426.756 34.2316 427.623 33.922 428.54 33.922C429.825 33.922 431.122 34.6862 431.152 36.0498V36.2244C430.709 35.9741 429.735 35.592 428.57 35.592C426.196 35.592 423.79 36.8832 423.79 39.3041C423.79 41.5208 425.736 42.9438 427.905 42.9438C429.57 42.9438 430.487 42.1961 431.06 41.3298H431.149V42.6078H433.539V36.2837C433.539 33.339 431.341 31.7086 428.511 31.7086ZM428.199 40.7501C427.388 40.7501 426.253 40.3548 426.253 39.3403C426.253 38.0623 427.67 37.5781 428.878 37.5781C429.97 37.5781 430.487 37.812 431.136 38.1348C430.957 39.617 429.699 40.7369 428.199 40.7501ZM442.259 32.061L439.412 39.2218H439.323L436.373 32.061H433.705L438.131 42.0709L435.608 47.6341H438.19L445 32.061H442.259ZM419.94 42.6276H422.419V26.119H419.94V42.6276Z" fill="#FEFEFE"/>
<path fill-rule="evenodd" clip-rule="evenodd" d="M292.582 13.5884C292.213 13.999 292 14.6262 292 15.4473V44.5686C292 45.3897 292.213 46.017 292.595 46.4111L292.694 46.4998L308.5 30.1837V29.8191L292.681 13.4998L292.582 13.5884Z" fill="url(#paint0_linear_436_6850)"/>
<path fill-rule="evenodd" clip-rule="evenodd" d="M313.991 35.9998L308.5 30.2027V29.7968L313.991 23.9998L314.11 24.0767L320.606 27.9741C322.465 29.0796 322.465 30.9059 320.606 32.0254L314.11 35.9228L313.991 35.9998Z" fill="url(#paint1_linear_436_6850)"/>
<path fill-rule="evenodd" clip-rule="evenodd" d="M314.5 35.4153L308.808 29.9998L292 45.9905C292.615 46.6175 293.647 46.6878 294.801 46.0769L314.5 35.4153Z" fill="url(#paint2_linear_436_6850)"/>
<path fill-rule="evenodd" clip-rule="evenodd" d="M314.5 24.581L294.801 13.9293C293.647 13.3019 292.612 13.3884 292 14.0157L308.808 29.9998L314.5 24.581Z" fill="url(#paint3_linear_436_6850)"/>
<path opacity="0.2" fill-rule="evenodd" clip-rule="evenodd" d="M296.482 36.1981L274.751 48.5647C273.537 49.2642 272.454 49.2156 271.756 48.5797L271.64 48.6957L271.756 48.7967C272.454 49.4288 273.537 49.4812 274.751 48.7817L296.631 36.3328L296.482 36.1981Z" fill="black"/>
<path opacity="0.12" fill-rule="evenodd" clip-rule="evenodd" d="M303.936 31.9488L296.463 36.1981L296.598 36.3328L303.917 32.1657C304.967 31.5672 305.482 30.7817 305.482 29.9999C305.419 30.7181 304.885 31.3989 303.936 31.9488Z" fill="black"/>
<path opacity="0.25" fill-rule="evenodd" clip-rule="evenodd" d="M295.294 14.1203L320.642 28.3328C321.465 28.7903 321.929 29.3886 322 29.9998C322 29.331 321.553 28.6591 320.642 28.1472L295.294 13.9347C293.475 12.9076 292 13.7651 292 15.8161V16.0016C292 13.9475 293.475 13.106 295.294 14.1203Z" fill="#FEFEFE"/>
<path d="M222.892 53.9854C222.892 57.3083 220.281 59.9999 217.052 59.9999H6.73907C3.51146 59.9999 0.891602 57.3083 0.891602 53.9854V6.02218C0.891602 2.70088 3.51146 -0.00012207 6.73907 -0.00012207L217.05 -0.00012207C220.281 -0.00012207 222.89 2.70088 222.89 6.02218L222.892 53.9854Z" fill="black"/>
<path d="M59.7174 29.8357C59.6778 25.2904 63.3273 23.0791 63.4942 22.9761C61.4273 19.8693 58.2237 19.4448 57.0979 19.411C54.4073 19.1191 51.7973 21.0709 50.4267 21.0709C49.0287 21.0709 46.918 19.4392 44.6432 19.4871C41.7159 19.5337 38.9774 21.281 37.4754 23.9944C34.3757 29.5268 36.6875 37.657 39.6572 42.129C41.1427 44.3191 42.8786 46.7645 45.1507 46.6785C47.3735 46.584 48.2038 45.2175 50.8863 45.2175C53.5441 45.2175 54.3238 46.6785 56.641 46.6235C59.0267 46.584 60.5286 44.4235 61.9622 42.2136C63.6789 39.7033 64.3683 37.2311 64.3957 37.1042C64.3396 37.0845 59.7626 35.2835 59.7174 29.8357Z" fill="#FEFEFE"/>
<path d="M55.3406 16.4686C56.5361 14.9272 57.3541 12.8301 57.1271 10.702C55.3967 10.781 53.2327 11.936 51.9865 13.4436C50.884 14.7721 49.8991 16.9495 50.1535 18.9972C52.0973 19.1467 54.0931 17.9861 55.3406 16.4686Z" fill="#FEFEFE"/>
<path d="M91.8854 46.3634H88.7789L87.0773 40.8507H81.1625L79.5415 46.3634H76.5171L82.3772 27.5956H85.9966L91.8854 46.3634ZM86.5643 38.5378L85.0254 33.6372C84.8626 33.1365 84.5576 31.9575 84.1076 30.1016H84.0528C83.8737 30.8998 83.585 32.0788 83.1883 33.6372L81.6768 38.5378H86.5643Z" fill="#FEFEFE"/>
<path d="M106.955 39.4305C106.955 41.732 106.351 43.5513 105.145 44.8868C104.064 46.0757 102.722 46.6694 101.121 46.6694C99.3916 46.6694 98.1496 46.0291 97.3931 44.7486H97.3384V51.8775H94.422V37.2855C94.422 35.8385 94.3851 34.3535 94.314 32.8304H96.8788L97.0416 34.9755H97.0963C98.0688 33.3593 99.5448 32.5526 101.526 32.5526C103.074 32.5526 104.367 33.183 105.401 34.4452C106.438 35.7088 106.955 37.3701 106.955 39.4305ZM103.984 39.5405C103.984 38.2233 103.696 37.1374 103.119 36.2828C102.489 35.3915 101.642 34.9458 100.58 34.9458C99.8608 34.9458 99.2069 35.194 98.6228 35.6834C98.0374 36.177 97.6544 36.8215 97.4752 37.6197C97.3849 37.992 97.3398 38.2966 97.3398 38.5364V40.7928C97.3398 41.7772 97.6325 42.6078 98.2179 43.2862C98.8034 43.9645 99.564 44.303 100.5 44.303C101.598 44.303 102.453 43.8658 103.064 42.9942C103.677 42.1213 103.984 40.9705 103.984 39.5405Z" fill="#FEFEFE"/>
<path d="M122.053 39.4305C122.053 41.732 121.449 43.5513 120.242 44.8868C119.162 46.0757 117.82 46.6694 116.219 46.6694C114.49 46.6694 113.248 46.0291 112.492 44.7486H112.438V51.8775H109.521V37.2855C109.521 35.8385 109.484 34.3535 109.413 32.8304H111.978L112.141 34.9755H112.196C113.167 33.3593 114.643 32.5526 116.625 32.5526C118.172 32.5526 119.465 33.183 120.502 34.4452C121.534 35.7088 122.053 37.3701 122.053 39.4305ZM119.082 39.5405C119.082 38.2233 118.793 37.1374 118.216 36.2828C117.585 35.3915 116.741 34.9458 115.678 34.9458C114.957 34.9458 114.305 35.194 113.719 35.6834C113.134 36.177 112.752 36.8215 112.573 37.6197C112.484 37.992 112.438 38.2966 112.438 38.5364V40.7928C112.438 41.7772 112.73 42.6078 113.313 43.2862C113.899 43.9631 114.659 44.303 115.598 44.303C116.696 44.303 117.551 43.8658 118.162 42.9942C118.775 42.1213 119.082 40.9705 119.082 39.5405Z" fill="#FEFEFE"/>
<path d="M138.934 41.1004C138.934 42.6968 138.396 43.9957 137.317 44.9984C136.131 46.0942 134.48 46.6413 132.358 46.6413C130.399 46.6413 128.829 46.2521 127.64 45.4722L128.316 42.9662C129.596 43.7644 131.001 44.1649 132.532 44.1649C133.63 44.1649 134.485 43.9082 135.1 43.3977C135.711 42.8872 136.016 42.2018 136.016 41.3472C136.016 40.5857 135.764 39.944 135.26 39.4236C134.758 38.9032 133.919 38.4195 132.748 37.9724C129.561 36.7469 127.969 34.9516 127.969 32.5908C127.969 31.048 128.527 29.783 129.644 28.7986C130.758 27.8129 132.243 27.3207 134.101 27.3207C135.757 27.3207 137.134 27.6182 138.232 28.212L137.503 30.663C136.477 30.0876 135.317 29.7999 134.019 29.7999C132.993 29.7999 132.191 30.0608 131.617 30.5798C131.131 31.0438 130.888 31.6093 130.888 32.2792C130.888 33.021 131.165 33.6344 131.724 34.1168C132.209 34.5624 133.091 35.0447 134.372 35.5651C135.938 36.2152 137.088 36.9754 137.828 37.8469C138.566 38.7156 138.934 39.803 138.934 41.1004Z" fill="#FEFEFE"/>
<path d="M148.576 35.0872H145.362V41.6577C145.362 43.3288 145.928 44.1637 147.063 44.1637C147.585 44.1637 148.017 44.1172 148.359 44.0241L148.439 46.3073C147.865 46.5287 147.109 46.6402 146.172 46.6402C145.02 46.6402 144.12 46.2777 143.47 45.5542C142.823 44.8294 142.497 43.6137 142.497 41.9059V35.0844H140.582V32.828H142.497V30.3502L145.362 29.4589V32.828H148.576V35.0872Z" fill="#FEFEFE"/>
<path d="M163.079 39.4855C163.079 41.5657 162.502 43.2735 161.35 44.609C160.142 45.9841 158.539 46.6694 156.541 46.6694C154.615 46.6694 153.081 46.0108 151.938 44.6937C150.794 43.3765 150.222 41.7138 150.222 39.7098C150.222 37.6127 150.811 35.895 151.991 34.5595C153.169 33.2225 154.758 32.5541 156.757 32.5541C158.683 32.5541 160.233 33.2127 161.402 34.5313C162.521 35.8104 163.079 37.4618 163.079 39.4855ZM160.054 39.5828C160.054 38.3348 159.795 37.2644 159.271 36.3717C158.66 35.2914 157.786 34.7527 156.653 34.7527C155.481 34.7527 154.59 35.2928 153.979 36.3717C153.455 37.2658 153.196 38.3531 153.196 39.6393C153.196 40.8873 153.455 41.9577 153.979 42.849C154.609 43.9293 155.49 44.468 156.627 44.468C157.74 44.468 158.614 43.918 159.245 42.8208C159.783 41.9112 160.054 40.8295 160.054 39.5828Z" fill="#FEFEFE"/>
<path d="M172.558 35.4747C172.27 35.4197 171.962 35.3915 171.639 35.3915C170.613 35.3915 169.82 35.7906 169.262 36.5902C168.776 37.2953 168.532 38.1866 168.532 39.2627V46.3634H165.617L165.645 37.0923C165.645 35.5325 165.608 34.1124 165.535 32.8318H168.076L168.182 35.4211H168.263C168.571 34.5312 169.056 33.8148 169.721 33.2775C170.371 32.7938 171.073 32.5526 171.829 32.5526C172.099 32.5526 172.342 32.5724 172.558 32.6076V35.4747Z" fill="#FEFEFE"/>
<path d="M185.6 38.9566C185.6 39.4954 185.566 39.9495 185.494 40.3204H176.745C176.779 41.6573 177.202 42.6797 178.014 43.3849C178.751 44.0153 179.705 44.3312 180.876 44.3312C182.171 44.3312 183.353 44.1182 184.416 43.6909L184.873 45.7781C183.631 46.3366 182.164 46.6144 180.472 46.6144C178.437 46.6144 176.839 45.9967 175.676 44.7627C174.516 43.5287 173.935 41.8717 173.935 39.7929C173.935 37.7523 174.475 36.0529 175.557 34.6976C176.69 33.2507 178.221 32.5272 180.147 32.5272C182.038 32.5272 183.471 33.2507 184.443 34.6976C185.213 35.847 185.6 37.2685 185.6 38.9566ZM182.82 38.1768C182.839 37.2855 182.649 36.5155 182.253 35.8653C181.748 35.029 180.973 34.6116 179.929 34.6116C178.976 34.6116 178.2 35.0192 177.608 35.8371C177.122 36.4873 176.834 37.2671 176.745 38.1753H182.82V38.1768Z" fill="#FEFEFE"/>
<path d="M85.5989 16.0499C85.5989 17.7098 85.116 18.9593 84.1517 19.7984C83.2584 20.5726 81.989 20.9605 80.3448 20.9605C79.5295 20.9605 78.8319 20.9238 78.2478 20.8505V11.781C79.0097 11.6541 79.8305 11.5892 80.7169 11.5892C82.2831 11.5892 83.4636 11.9404 84.2597 12.6427C85.1516 13.4367 85.5989 14.5719 85.5989 16.0499ZM84.0874 16.0908C84.0874 15.0148 83.811 14.1898 83.2584 13.6144C82.7058 13.0404 81.8987 12.7527 80.8359 12.7527C80.3845 12.7527 80.0001 12.7837 79.6814 12.8486V19.7434C79.8578 19.7716 80.1806 19.7843 80.6498 19.7843C81.7469 19.7843 82.5936 19.4698 83.19 18.8408C83.7864 18.2118 84.0874 17.2952 84.0874 16.0908Z" fill="#FEFEFE"/>
<path d="M93.6132 17.5C93.6132 18.5224 93.33 19.3601 92.7637 20.0173C92.1701 20.6928 91.3835 21.0299 90.4014 21.0299C89.4548 21.0299 88.7011 20.7069 88.1389 20.0582C87.578 19.4109 87.2976 18.5943 87.2976 17.61C87.2976 16.5805 87.5862 15.7357 88.1662 15.0799C88.7462 14.4242 89.5259 14.0956 90.5081 14.0956C91.4547 14.0956 92.2152 14.4185 92.7911 15.0658C93.3382 15.6948 93.6132 16.5071 93.6132 17.5ZM92.1263 17.5479C92.1263 16.9344 91.9977 16.4084 91.7419 15.9698C91.441 15.4396 91.0128 15.1744 90.4561 15.1744C89.8802 15.1744 89.4425 15.4396 89.1415 15.9698C88.8844 16.4084 88.7572 16.9429 88.7572 17.5747C88.7572 18.1882 88.8857 18.7142 89.1415 19.1528C89.452 19.6831 89.8843 19.9482 90.4424 19.9482C90.9896 19.9482 91.4191 19.6788 91.7282 19.1387C91.9936 18.6916 92.1263 18.1614 92.1263 17.5479Z" fill="#FEFEFE"/>
<path d="M104.359 14.2308L102.341 20.8788H101.028L100.192 17.992C99.9805 17.2714 99.8081 16.555 99.674 15.8442H99.6481C99.5236 16.5747 99.3512 17.2897 99.1296 17.992L98.2419 20.8788H96.9136L95.0164 14.2308H96.4896L97.2187 17.3912C97.3951 18.1387 97.5401 18.8509 97.6564 19.525H97.6824C97.7891 18.9693 97.9655 18.2614 98.2145 17.4053L99.1296 14.2322H100.298L101.175 17.3377C101.387 18.095 101.559 18.8241 101.692 19.5264H101.731C101.828 18.8424 101.975 18.1133 102.169 17.3377L102.952 14.2322H104.359V14.2308Z" fill="#FEFEFE"/>
<path d="M111.791 20.8788H110.358V17.0711C110.358 15.8977 109.925 15.3111 109.058 15.3111C108.633 15.3111 108.289 15.4718 108.023 15.7948C107.759 16.1177 107.625 16.4985 107.625 16.9343V20.8774H106.191V16.1304C106.191 15.5466 106.173 14.9134 106.139 14.228H107.399L107.466 15.2674H107.506C107.673 14.9444 107.922 14.6779 108.248 14.4649C108.637 14.2167 109.072 14.0912 109.548 14.0912C110.15 14.0912 110.65 14.2914 111.049 14.6934C111.544 15.1856 111.791 15.9203 111.791 16.8962V20.8788Z" fill="#FEFEFE"/>
<path d="M115.745 20.8785H114.313V11.1801H115.745V20.8785Z" fill="#FEFEFE"/>
<path d="M124.184 17.5C124.184 18.5224 123.901 19.3601 123.335 20.0173C122.741 20.6928 121.953 21.0299 120.972 21.0299C120.024 21.0299 119.271 20.7069 118.71 20.0582C118.149 19.4109 117.868 18.5943 117.868 17.61C117.868 16.5805 118.157 15.7357 118.737 15.0799C119.317 14.4242 120.097 14.0956 121.077 14.0956C122.025 14.0956 122.785 14.4185 123.362 15.0658C123.909 15.6948 124.184 16.5071 124.184 17.5ZM122.696 17.5479C122.696 16.9344 122.567 16.4084 122.311 15.9698C122.012 15.4396 121.582 15.1744 121.027 15.1744C120.45 15.1744 120.012 15.4396 119.712 15.9698C119.455 16.4084 119.328 16.9429 119.328 17.5747C119.328 18.1882 119.457 18.7142 119.712 19.1528C120.023 19.6831 120.455 19.9482 121.013 19.9482C121.56 19.9482 121.989 19.6788 122.298 19.1387C122.564 18.6916 122.696 18.1614 122.696 17.5479Z" fill="#FEFEFE"/>
<path d="M131.123 20.879H129.836L129.729 20.1132H129.689C129.249 20.7238 128.621 21.0299 127.806 21.0299C127.197 21.0299 126.705 20.8282 126.334 20.4277C125.997 20.0638 125.829 19.6111 125.829 19.0738C125.829 18.2615 126.157 17.6424 126.818 17.2137C127.477 16.785 128.405 16.5748 129.599 16.5847V16.4606C129.599 15.5848 129.153 15.1476 128.26 15.1476C127.624 15.1476 127.063 15.3126 126.579 15.6398L126.287 14.6696C126.886 14.2874 127.627 14.0956 128.499 14.0956C130.185 14.0956 131.03 15.0123 131.03 16.8456V19.2938C131.03 19.9581 131.061 20.4869 131.123 20.879ZM129.635 18.5943V17.5691C128.053 17.5409 127.263 17.9879 127.263 18.9088C127.263 19.2557 127.353 19.5152 127.538 19.6887C127.722 19.8622 127.958 19.9482 128.238 19.9482C128.553 19.9482 128.847 19.8452 129.115 19.6408C129.384 19.4349 129.55 19.174 129.611 18.8538C129.626 18.7819 129.635 18.6945 129.635 18.5943Z" fill="#FEFEFE"/>
<path d="M139.269 20.8785H137.996L137.929 19.8109H137.89C137.483 20.6232 136.791 21.0294 135.819 21.0294C135.042 21.0294 134.395 20.7149 133.882 20.0859C133.369 19.4569 133.113 18.6404 133.113 17.6377C133.113 16.5616 133.391 15.6901 133.949 15.0244C134.489 14.4039 135.151 14.0937 135.939 14.0937C136.805 14.0937 137.411 14.3941 137.756 14.9962H137.783V11.1801H139.218V19.0874C139.218 19.7347 139.234 20.3313 139.269 20.8785ZM137.783 18.0748V16.9664C137.783 16.7746 137.769 16.6195 137.743 16.501C137.663 16.1456 137.489 15.8466 137.225 15.6055C136.958 15.3643 136.637 15.243 136.266 15.243C135.731 15.243 135.313 15.4616 135.005 15.9002C134.7 16.3388 134.545 16.8987 134.545 17.5827C134.545 18.2399 134.692 18.7729 134.986 19.1833C135.296 19.6205 135.715 19.8391 136.239 19.8391C136.709 19.8391 137.085 19.6572 137.371 19.2919C137.648 18.9549 137.783 18.5487 137.783 18.0748Z" fill="#FEFEFE"/>
<path d="M151.529 17.5C151.529 18.5224 151.246 19.3601 150.68 20.0173C150.086 20.6928 149.301 21.0299 148.317 21.0299C147.372 21.0299 146.618 20.7069 146.055 20.0582C145.494 19.4109 145.214 18.5943 145.214 17.61C145.214 16.5805 145.502 15.7357 146.082 15.0799C146.662 14.4242 147.442 14.0956 148.425 14.0956C149.371 14.0956 150.133 14.4185 150.707 15.0658C151.254 15.6948 151.529 16.5071 151.529 17.5ZM150.044 17.5479C150.044 16.9344 149.915 16.4084 149.659 15.9698C149.357 15.4396 148.93 15.1744 148.372 15.1744C147.798 15.1744 147.36 15.4396 147.058 15.9698C146.8 16.4084 146.673 16.9429 146.673 17.5747C146.673 18.1882 146.802 18.7142 147.058 19.1528C147.368 19.6831 147.8 19.9482 148.358 19.9482C148.906 19.9482 149.336 19.6788 149.646 19.1387C149.91 18.6916 150.044 18.1614 150.044 17.5479Z" fill="#FEFEFE"/>
<path d="M159.238 20.8788H157.806V17.0711C157.806 15.8977 157.373 15.3111 156.505 15.3111C156.079 15.3111 155.736 15.4718 155.471 15.7948C155.205 16.1177 155.072 16.4985 155.072 16.9343V20.8774H153.638V16.1304C153.638 15.5466 153.621 14.9134 153.587 14.228H154.845L154.912 15.2674H154.952C155.12 14.9444 155.369 14.6779 155.695 14.4649C156.085 14.2167 156.518 14.0912 156.996 14.0912C157.596 14.0912 158.097 14.2914 158.495 14.6934C158.991 15.1856 159.238 15.9203 159.238 16.8962V20.8788Z" fill="#FEFEFE"/>
<path d="M168.885 15.3378H167.306V18.5673C167.306 19.3881 167.586 19.7985 168.142 19.7985C168.399 19.7985 168.612 19.7759 168.781 19.7294L168.817 20.8505C168.534 20.9605 168.162 21.0155 167.704 21.0155C167.138 21.0155 166.697 20.8378 166.379 20.4824C166.058 20.1271 165.9 19.5291 165.9 18.69V15.3378H164.957V14.2307H165.9V13.0123L167.305 12.5751V14.2293H168.883V15.3378H168.885Z" fill="#FEFEFE"/>
<path d="M176.475 20.8785H175.04V17.0989C175.04 15.9073 174.608 15.3107 173.742 15.3107C173.077 15.3107 172.623 15.6562 172.374 16.3473C172.332 16.4925 172.307 16.6702 172.307 16.8789V20.8771H170.875V11.1801H172.307V15.1866H172.334C172.786 14.4575 173.433 14.0937 174.271 14.0937C174.865 14.0937 175.356 14.2939 175.746 14.6958C176.231 15.1965 176.475 15.9411 176.475 16.9255V20.8785Z" fill="#FEFEFE"/>
<path d="M184.303 17.24C184.303 17.5051 184.284 17.7279 184.249 17.9099H179.95C179.969 18.567 180.174 19.0677 180.572 19.4146C180.936 19.7249 181.405 19.88 181.98 19.88C182.616 19.88 183.196 19.7756 183.719 19.5655L183.943 20.5922C183.331 20.8658 182.612 21.0026 181.779 21.0026C180.78 21.0026 179.994 20.6994 179.425 20.093C178.853 19.4865 178.57 18.6728 178.57 17.6518C178.57 16.6491 178.834 15.8142 179.366 15.1486C179.921 14.4378 180.672 14.0824 181.62 14.0824C182.548 14.0824 183.252 14.4378 183.728 15.1486C184.113 15.7127 184.303 16.4107 184.303 17.24ZM182.935 16.8578C182.946 16.4192 182.851 16.0413 182.657 15.7225C182.408 15.3122 182.029 15.1063 181.516 15.1063C181.048 15.1063 180.667 15.3065 180.375 15.7084C180.137 16.0286 179.997 16.4107 179.95 16.8578H182.935Z" fill="#FEFEFE"/>
<defs>
<linearGradient id="paint0_linear_436_6850" x1="307.082" y1="15.1331" x2="281.659" y2="21.6954" gradientUnits="userSpaceOnUse">
<stop stop-color="#00A0FF"/>
<stop offset="0.00657" stop-color="#00A1FF"/>
<stop offset="0.2601" stop-color="#00BEFF"/>
<stop offset="0.5122" stop-color="#00D2FF"/>
<stop offset="0.7604" stop-color="#00DFFF"/>
<stop offset="1" stop-color="#00E3FF"/>
</linearGradient>
<linearGradient id="paint1_linear_436_6850" x1="323.03" y1="29.9998" x2="290.876" y2="29.9998" gradientUnits="userSpaceOnUse">
<stop stop-color="#FFE000"/>
<stop offset="0.4087" stop-color="#FFBD00"/>
<stop offset="0.7754" stop-color="#FFA500"/>
<stop offset="1" stop-color="#FF9C00"/>
</linearGradient>
<linearGradient id="paint2_linear_436_6850" x1="311.405" y1="32.9466" x2="291.469" y2="68.2142" gradientUnits="userSpaceOnUse">
<stop stop-color="#FF3A44"/>
<stop offset="1" stop-color="#C31162"/>
</linearGradient>
<linearGradient id="paint3_linear_436_6850" x1="287.768" y1="4.55998" x2="296.669" y2="20.3152" gradientUnits="userSpaceOnUse">
<stop stop-color="#32A071"/>
<stop offset="0.0685" stop-color="#2DA771"/>
<stop offset="0.4762" stop-color="#15CF74"/>
<stop offset="0.8009" stop-color="#06E775"/>
<stop offset="1" stop-color="#00F076"/>
</linearGradient>
</defs>
</svg>
