<svg width="61" height="21" viewBox="0 0 61 21" fill="none" xmlns="http://www.w3.org/2000/svg">
<g clip-path="url(#clip0_416_2396)">
<path d="M58.4152 10.1705H53.7882V9.13391H59.55V16.0464H58.5668V13.8676C58.4556 13.944 58.3527 14.0316 58.2599 14.1288C56.9231 16.0615 54.9675 16.5757 52.7595 16.3923C49.4743 16.1172 47.8293 13.777 47.4683 10.7811C47.2767 9.19196 47.3284 7.62838 47.8456 6.08688C48.2079 4.99714 48.8937 4.04014 49.8141 3.34025C50.7344 2.64035 51.8467 2.2299 53.0065 2.16224C54.6877 2.06822 56.2835 2.31895 57.6602 3.37526C58.6492 4.13442 59.6957 5.33486 60.0001 6.6001C59.6662 6.6001 59.0717 6.65815 58.8001 6.6001C58.619 6.56063 58.1316 6.22846 58.0825 6.07179C57.3933 3.94869 55.0854 3.00846 52.9478 3.25687C50.39 3.55287 48.95 5.75256 48.7876 7.86403C48.6993 8.97374 48.6289 10.1194 48.8109 11.2059C49.1307 13.12 50.2159 14.5722 52.1645 15.1526C53.9731 15.6958 55.6613 15.3847 57.0372 14.022C58.0871 12.9912 58.3648 11.6609 58.4152 10.1705Z" fill="#4AC4DC"/>
<path fill-rule="evenodd" clip-rule="evenodd" d="M56.5026 3.34152C57.4515 3.86418 58.228 4.68027 58.6177 5.81037C58.6303 5.81825 58.6445 5.82588 58.6587 5.83229C58.6641 5.83472 58.6688 5.83665 58.6728 5.83817C58.383 5.00692 57.9605 4.3506 57.3005 3.84397M58.6819 5.86446C58.7587 6.08803 58.8261 6.32416 58.886 6.57333L59.4603 6.43516V5.84448C59.3496 5.84448 59.2183 5.8497 59.1116 5.85395C59.0571 5.85611 59.009 5.85803 58.9734 5.85886C58.838 5.86202 58.7516 5.85684 58.6843 5.84244L58.6805 5.86041M58.6819 5.86446L58.5608 6.41997L58.6805 5.86041M56.5026 3.34152C56.7776 3.48058 57.0438 3.647 57.3005 3.84397L56.5026 3.34152ZM50.4408 3.61889C50.3492 3.67979 50.2593 3.74367 50.1715 3.81048C49.3452 4.4389 48.7304 5.29727 48.4059 6.2733L48.4054 6.27484C47.9241 7.70948 47.87 9.17964 48.0546 10.7104C48.2252 12.126 48.6936 13.3376 49.4623 14.2188C49.984 14.8168 50.6602 15.282 51.5192 15.5553C49.6227 14.8142 48.5534 13.2494 48.2282 11.3036M51.995 15.7186C52.2648 15.7995 52.5332 15.8633 52.7996 15.9091C54.4984 16.2015 56.1144 15.7667 57.4518 14.4426C57.6294 14.2682 57.7872 14.0866 57.9274 13.899C57.9401 13.8819 57.9527 13.8647 57.9652 13.8476C58.0697 13.7036 58.164 13.5561 58.2491 13.4056C58.2601 13.386 58.271 13.3664 58.2818 13.3467L58.9592 12.8811V15.4558H58.5666V16.0464H59.5499V15.4558H59.1573V12.7449L58.9592 12.8811V10.9295C58.9826 10.6845 58.997 10.4378 59.0054 10.1905L59.0212 9.72466H59.5499V9.13398H58.9592V9.57987H54.3787V9.13398H53.788V10.1706H54.3787V9.72466H58.9592V10.9295C58.8785 11.7742 58.6914 12.5974 58.2818 13.3467L58.2321 13.3809C58.0875 13.4802 57.9536 13.5941 57.8326 13.7209L57.8004 13.7545L57.7739 13.7928C57.6382 13.989 57.4954 14.169 57.3457 14.3337L57.0371 14.0221L57.3444 14.3351C56.1972 15.5961 54.6474 15.9565 52.8083 15.8037C52.5264 15.7801 52.259 15.7401 52.0058 15.685L52.1643 15.1526M50.4408 3.61889C49.0744 4.62906 48.3181 6.26634 48.1985 7.81801C48.1106 8.92388 48.0328 10.1368 48.2282 11.3036M52.9734 1.57255C54.7322 1.47419 56.4889 1.73228 58.0196 2.9067C59.154 3.77738 59.712 4.95608 60.0346 6.29698L60.21 7.02584H59.4603C59.3639 7.02584 59.2899 7.02903 59.2072 7.0326C59.147 7.0352 59.0822 7.038 59.0009 7.0399C58.838 7.0437 58.6415 7.04135 58.4373 6.99769L58.4351 6.99721C58.2592 6.95888 58.0818 6.87603 57.9371 6.77645C57.8113 6.6898 57.605 6.51886 57.52 6.25253C56.9473 4.49179 54.9841 3.61493 53.0158 3.84367C50.814 4.09848 49.5234 5.99712 49.3764 7.9094L49.3762 7.91094C49.2877 9.02422 49.2248 10.1025 49.3933 11.1084C49.6815 12.8333 50.6311 14.0797 52.3329 14.5865L52.3342 14.5869C53.9609 15.0755 55.4171 14.7952 56.6214 13.6024L56.6232 13.6006C57.3806 12.857 57.6852 11.9167 57.7883 10.7612H53.1973V8.5433H60.1405V16.6371H57.976V15.3824C56.5409 16.7854 54.6733 17.1441 52.7105 16.981C50.9258 16.8316 49.547 16.1129 48.5721 14.9954C47.6067 13.8887 47.0722 12.4323 46.8817 10.8518C46.6831 9.20467 46.7323 7.54793 47.2852 5.89982C47.6853 4.6967 48.4423 3.64137 49.4564 2.87015C50.4706 2.09882 51.6956 1.6471 52.972 1.57263L52.9734 1.57255Z" fill="#4AC4DC"/>
<path d="M43.4821 14.3154V2.53693H44.7298V16.0902C44.3242 16.0902 43.9065 16.1344 43.5175 16.0717C43.3326 16.0415 43.1398 15.8395 43.0211 15.6585C41.8618 13.9417 40.7178 12.2144 39.569 10.4906C38.218 8.46273 36.8646 6.4279 35.3701 4.43249V16.0624H34.0908V2.59729C35.1009 2.32219 35.443 2.44059 35.9145 3.1475C38.3673 6.81792 40.8244 10.4852 43.286 14.1494C43.3468 14.2095 43.4126 14.265 43.4821 14.3154Z" fill="#4AC4DC"/>
<path fill-rule="evenodd" clip-rule="evenodd" d="M34.6814 3.06983V15.4719H34.7793V3.05715C34.7497 3.06012 34.7171 3.06428 34.6814 3.06983ZM35.1228 3.11738L35.6878 3.87171C35.5996 3.73977 35.5115 3.60782 35.4233 3.47587C35.2842 3.2674 35.1901 3.16751 35.1228 3.11738ZM43.1649 14.8153C43.2799 14.9863 43.3951 15.1572 43.5105 15.3281L43.515 15.3348C43.552 15.3911 43.5974 15.4451 43.6377 15.4811C43.6439 15.4867 43.6494 15.4913 43.6541 15.495C43.7867 15.5127 43.9347 15.5167 44.108 15.514C44.118 15.5139 44.1283 15.5137 44.139 15.5135V3.12779H44.0727V15.4732L43.1649 14.8153ZM36.4056 2.81966C36.1523 2.43995 35.8523 2.08612 35.3787 1.93991C34.9324 1.80211 34.4478 1.88799 33.9355 2.02755L33.5 2.14615V16.6533H35.9607V6.24375C37.0189 7.72859 38.0203 9.23177 39.0253 10.7403L39.0773 10.8183C39.3525 11.2313 39.6277 11.6448 39.9029 12.0584C40.7747 13.3685 41.6478 14.6806 42.5294 15.9862C42.6109 16.1099 42.7204 16.2459 42.851 16.3625C42.9731 16.4714 43.1691 16.6135 43.4222 16.6548L43.4234 16.655C43.669 16.6946 43.9112 16.6986 44.1265 16.6952C44.2345 16.6936 44.3239 16.6906 44.408 16.6878C44.5149 16.6843 44.613 16.6811 44.7296 16.6811H45.3203V1.94643H42.8913V12.5026C40.726 9.27736 38.5641 6.04972 36.4056 2.81966Z" fill="#4AC4DC"/>
<path d="M16.0172 16.0752H15.0024V2.54272H16.0172V16.0752Z" fill="#4AC4DC"/>
<path fill-rule="evenodd" clip-rule="evenodd" d="M14.4116 1.95215H16.6077V16.6659H14.4116V1.95215Z" fill="#4AC4DC"/>
<path d="M30.8925 16.0638H29.8918V6.37012H30.8925V16.0638Z" fill="#4AC4DC"/>
<path fill-rule="evenodd" clip-rule="evenodd" d="M29.3013 5.7793H31.4832V16.6544H29.3013V5.7793Z" fill="#4AC4DC"/>
<path d="M19.6304 3.75238V2.98511H26.048V3.75238H19.6304Z" fill="#4AC4DC"/>
<path fill-rule="evenodd" clip-rule="evenodd" d="M19.0398 2.39429H26.6388V4.34292H19.0398V2.39429Z" fill="#4AC4DC"/>
<path d="M1.60022 5.04563H0.822998V2.39673H1.60022V5.04563Z" fill="#4AC4DC"/>
<path fill-rule="evenodd" clip-rule="evenodd" d="M0.232422 1.80591H2.191V5.63617H0.232422V1.80591Z" fill="#4AC4DC"/>
<path d="M31.0053 2.54175V4.10068H29.8777V2.54175H31.0053Z" fill="#4AC4DC"/>
<path fill-rule="evenodd" clip-rule="evenodd" d="M29.2871 1.95093H31.5961V4.69122H29.2871V1.95093Z" fill="#4AC4DC"/>
<path fill-rule="evenodd" clip-rule="evenodd" d="M10.7988 6.35956C10.7647 6.86683 10.7329 7.34043 10.693 7.93938C9.71112 6.6091 8.45652 5.90454 6.63281 6.08909C5.18065 6.23536 4.06716 6.89117 3.41693 8.19476C2.67733 9.68056 2.65734 11.2546 2.98775 12.8379C3.69677 16.232 7.04433 17.0806 9.40542 15.7236C9.72195 15.5418 10.0061 15.3049 10.3247 15.0393C10.4842 14.9063 10.6524 14.7661 10.8376 14.622C10.8051 14.8679 10.7782 15.1059 10.752 15.3378C10.6946 15.8448 10.6406 16.3228 10.5389 16.7904C10.3332 17.7294 9.78754 18.4816 8.86455 18.8182C7.79334 19.2083 6.64926 19.2477 5.59105 18.8182C5.11602 18.6221 4.67034 18.152 4.42344 17.6934C4.23058 17.3371 4.06716 17.2582 3.73087 17.2779C3.59675 17.2847 3.46213 17.2826 3.31463 17.2804C3.23584 17.2792 3.15338 17.2779 3.06536 17.2779C3.24173 18.282 3.72853 18.961 4.53513 19.4172C5.90733 20.1926 7.37948 20.1949 8.86101 19.8757C10.0556 19.618 10.9881 18.9517 11.382 17.7759C11.6474 17.0337 11.7999 16.2569 11.8347 15.4706C11.8719 13.4104 11.8653 11.3484 11.8587 9.2863C11.8561 8.48443 11.8535 7.68252 11.8535 6.88073C11.8535 6.76323 11.8442 6.64943 11.8347 6.53103C11.8301 6.4752 11.8255 6.41831 11.8217 6.35956H10.7988ZM4.00954 11.8238C3.96605 11.6025 3.92245 11.3806 3.87315 11.1594C3.87063 11.1594 3.86866 11.1572 3.86891 11.1548C3.90057 10.8392 3.93654 10.5279 3.98852 10.2245C3.99313 10.1956 3.99807 10.1668 4.00333 10.138C4.12123 9.49223 4.31791 8.88436 4.70728 8.35057C4.80119 8.22181 4.9063 8.09733 5.02427 7.97769C6.60258 6.3774 9.30668 6.80286 10.2511 8.80686C10.2684 8.84374 10.2852 8.88115 10.3014 8.9191C10.308 8.93447 10.3144 8.94985 10.3209 8.96527C10.4546 9.28462 10.5619 9.605 10.6412 9.92533C10.9821 11.2996 10.807 12.6677 9.97131 13.9537C9.95803 13.9742 9.94462 13.9946 9.931 14.015C9.22551 15.0806 8.16726 15.5055 6.8868 15.3325C6.84349 15.3267 6.80068 15.3202 6.75837 15.3131C5.60829 15.1207 4.8171 14.4647 4.40907 13.4117C4.38596 13.3521 4.36409 13.2913 4.34348 13.2291C4.22946 12.8836 4.14795 12.528 4.07447 12.1696C4.05486 12.074 4.0369 11.9779 4.02087 11.8815C4.01709 11.8623 4.01332 11.8431 4.00954 11.8238Z" fill="#4AC4DC"/>
<path d="M10.693 7.93945L10.4445 8.1182L10.9441 8.79505L10.9998 7.95939L10.693 7.93945ZM10.7989 6.35963V6.05606H10.5111L10.492 6.33952L10.7989 6.35963ZM6.63289 6.08916L6.66408 6.39112H6.66424L6.63289 6.08916ZM3.41701 8.19483L3.14116 8.06072L3.14105 8.06093L3.41701 8.19483ZM2.98782 12.838L2.68667 12.8992L2.68668 12.8993L2.98782 12.838ZM9.40549 15.7237L9.25087 15.4613L9.25079 15.4613L9.40549 15.7237ZM10.3248 15.0393L10.1264 14.8074L10.3248 15.0393ZM10.8377 14.6221L11.1425 14.6613L11.2401 13.9224L10.6473 14.3837L10.8377 14.6221ZM10.752 15.3378L11.0576 15.3715L10.752 15.3378ZM10.539 16.7904L10.8395 16.8546L10.8396 16.8542L10.539 16.7904ZM8.86462 18.8183L8.97102 19.1031L8.97115 19.1031L8.86462 18.8183ZM5.59112 18.8183L5.47244 19.0984L5.47419 19.0991L5.59112 18.8183ZM4.42351 17.6935L4.69499 17.551L4.69474 17.5505L4.42351 17.6935ZM3.73095 17.278L3.74674 17.5811L3.74919 17.581L3.73095 17.278ZM3.31471 17.2804L3.30992 17.584L3.31471 17.2804ZM3.06544 17.278V16.9744H2.70005L2.76248 17.3298L3.06544 17.278ZM4.5352 19.4173L4.38237 19.6807L4.38245 19.6807L4.5352 19.4173ZM8.86108 19.8758L8.92663 20.1724H8.92671L8.86108 19.8758ZM11.382 17.7759L11.0921 17.6749L11.0911 17.6778L11.0901 17.6806L11.382 17.7759ZM11.8347 15.4706L12.1419 15.4839L12.1421 15.4799L12.1422 15.476L11.8347 15.4706ZM11.8587 9.28637L12.1662 9.28538L11.8587 9.28637ZM11.8347 6.5311L12.1412 6.50689L11.8347 6.5311ZM11.8218 6.35963L12.1287 6.34043L12.1104 6.05606H11.8218V6.35963ZM3.87323 11.1595L4.17352 11.0942L4.12041 10.8559H3.87323V11.1595ZM4.00961 11.8239L4.31145 11.7661L4.00961 11.8239ZM3.86898 11.1548L4.17498 11.1848L3.86898 11.1548ZM3.9886 10.2246L4.29179 10.2752L4.29233 10.2718L3.9886 10.2246ZM4.0034 10.1381L4.30599 10.1919L4.0034 10.1381ZM4.70736 8.35064L4.95689 8.52803L4.95693 8.52799L4.70736 8.35064ZM5.02435 7.97776L4.80405 7.766L4.80401 7.76604L5.02435 7.97776ZM10.2512 8.80693L9.97235 8.93495L10.2512 8.80693ZM10.3015 8.91917L10.5849 8.80159L10.5849 8.80146L10.3015 8.91917ZM10.321 8.96533L10.0367 9.08102L10.0368 9.08127L10.321 8.96533ZM10.6412 9.9254L10.3425 9.99743L10.3426 9.99763L10.6412 9.9254ZM9.97139 13.9538L9.71262 13.7899L9.71249 13.79L9.97139 13.9538ZM9.93108 14.0151L9.67422 13.8482L9.67368 13.849L9.93108 14.0151ZM6.88687 15.3326L6.84519 15.6333L6.88687 15.3326ZM6.75844 15.3131L6.81004 15.0139L6.80983 15.0139L6.75844 15.3131ZM4.40915 13.4118L4.69632 13.3033L4.69628 13.3032L4.40915 13.4118ZM4.34356 13.2292L4.0512 13.3233L4.05137 13.3238L4.34356 13.2292ZM4.07454 12.1697L3.77318 12.2298L4.07454 12.1697ZM4.02095 11.8816L4.32436 11.8324L4.32365 11.8281L4.32278 11.8237L4.02095 11.8816ZM10.9998 7.95939C11.0398 7.36048 11.0715 6.88692 11.1056 6.37973L10.492 6.33952C10.4579 6.84684 10.4262 7.32048 10.3862 7.91951L10.9998 7.95939ZM6.66424 6.39112C7.52719 6.3038 8.23805 6.42783 8.84405 6.71914C9.45209 7.01145 9.97493 7.482 10.4445 8.1182L10.9415 7.7607C10.4293 7.06666 9.83393 6.51976 9.11328 6.17335C8.39059 5.82592 7.56229 5.68997 6.60153 5.7872L6.66424 6.39112ZM3.69285 8.32893C4.2895 7.13276 5.30112 6.52843 6.66408 6.39112L6.6017 5.7872C5.06037 5.94243 3.84498 6.64971 3.14116 8.06072L3.69285 8.32893ZM3.28898 12.7767C2.96709 11.2342 2.99323 9.7344 3.69296 8.32869L3.14105 8.06093C2.36159 9.62681 2.34775 11.2751 2.68667 12.8992L3.28898 12.7767ZM9.25079 15.4613C8.14677 16.0959 6.8172 16.2111 5.6882 15.7794C4.56902 15.3515 3.62328 14.377 3.28897 12.7767L2.68668 12.8993C3.0614 14.693 4.14395 15.8399 5.46607 16.3455C6.77843 16.8474 8.30314 16.7085 9.5602 15.986L9.25079 15.4613ZM10.1264 14.8074C9.80348 15.0767 9.54 15.2953 9.25087 15.4613L9.56008 15.986C9.90405 15.7885 10.2089 15.5332 10.5232 15.2712L10.1264 14.8074ZM10.6473 14.3837C10.4575 14.5314 10.2856 14.6748 10.1264 14.8074L10.5232 15.2712C10.6831 15.1379 10.8475 15.0009 11.028 14.8605L10.6473 14.3837ZM11.0576 15.3715C11.0839 15.1392 11.1105 14.904 11.1425 14.6613L10.5328 14.5828C10.4999 14.8319 10.4727 15.0726 10.4465 15.3042L11.0576 15.3715ZM10.8396 16.8542C10.9451 16.3691 11.0006 15.8757 11.0576 15.3715L10.4465 15.3042C10.3888 15.8141 10.3362 16.2766 10.2384 16.7267L10.8396 16.8542ZM8.97115 19.1031C10.0127 18.7232 10.6164 17.8728 10.8395 16.8546L10.2385 16.7263C10.05 17.5862 9.56262 18.2402 8.75806 18.5336L8.97115 19.1031ZM5.47419 19.0991C6.61448 19.5619 7.83923 19.5152 8.97102 19.1031L8.75822 18.5335C7.74765 18.9015 6.68423 18.9338 5.70802 18.5376L5.47419 19.0991ZM4.15202 17.836C4.42206 18.3374 4.91429 18.8679 5.47244 19.0984L5.70977 18.5383C5.31786 18.3765 4.91883 17.9666 4.69499 17.551L4.15202 17.836ZM3.74919 17.581C3.89479 17.5724 3.94657 17.5898 3.97573 17.6067C4.00919 17.626 4.06502 17.6753 4.15231 17.8365L4.69474 17.5505C4.58917 17.3555 4.46686 17.187 4.28634 17.0827C4.10148 16.976 3.90339 16.9638 3.71271 16.9749L3.74919 17.581ZM3.30992 17.584C3.45544 17.5862 3.60054 17.5885 3.74674 17.5811L3.71516 16.9748C3.59311 16.981 3.46897 16.9792 3.31949 16.9769L3.30992 17.584ZM3.06544 17.5815C3.15072 17.5815 3.23088 17.5827 3.30992 17.584L3.31949 16.9769C3.24096 16.9757 3.1562 16.9744 3.06544 16.9744V17.5815ZM4.68808 19.1539C3.96489 18.7449 3.52993 18.1457 3.36839 17.2261L2.76248 17.3298C2.95369 18.4183 3.49231 19.1773 4.38237 19.6807L4.68808 19.1539ZM8.79554 19.5792C7.35453 19.8897 5.96913 19.8778 4.68795 19.1539L4.38245 19.6807C5.84569 20.5076 7.40455 20.5003 8.92663 20.1724L8.79554 19.5792ZM11.0901 17.6806C10.7376 18.7329 9.9088 19.3391 8.79545 19.5792L8.92671 20.1724C10.2026 19.8971 11.2387 19.1708 11.674 17.8712L11.0901 17.6806ZM11.5276 15.4574C11.4941 16.2137 11.3474 16.961 11.0921 17.6749L11.672 17.877C11.9475 17.1066 12.1058 16.3001 12.1419 15.4839L11.5276 15.4574ZM11.5512 9.28732C11.5579 11.3499 11.5645 13.4087 11.5273 15.4652L12.1422 15.476C12.1795 13.4121 12.1729 11.3469 12.1662 9.28538L11.5512 9.28732ZM11.5461 6.88079C11.5461 7.68316 11.5487 8.48553 11.5512 9.28732L12.1662 9.28538C12.1636 8.48343 12.161 7.68205 12.161 6.88079H11.5461ZM11.5282 6.55536C11.538 6.67561 11.5461 6.7774 11.5461 6.88079H12.161C12.161 6.74916 12.1507 6.6234 12.1412 6.50689L11.5282 6.55536ZM11.515 6.37879C11.5189 6.44049 11.5237 6.49986 11.5282 6.55536L12.1412 6.50689C12.1367 6.45069 12.1322 6.3963 12.1287 6.34043L11.515 6.37879ZM10.7989 6.66315H11.8218V6.05606H10.7989V6.66315ZM3.57293 11.2247C3.62127 11.4416 3.66416 11.6598 3.70776 11.8817L4.31145 11.7661C4.2681 11.5454 4.22379 11.3198 4.17352 11.0942L3.57293 11.2247ZM3.563 11.1249C3.54489 11.3054 3.68831 11.463 3.87323 11.463V10.8559C4.05311 10.8559 4.1926 11.0092 4.17498 11.1848L3.563 11.1249ZM3.68543 10.174C3.63168 10.4877 3.5949 10.8071 3.563 11.1249L4.17498 11.1848C4.20638 10.8715 4.24157 10.5683 4.29175 10.2752L3.68543 10.174ZM4.29233 10.2718C4.29658 10.2451 4.30116 10.2185 4.30599 10.1919L3.7008 10.0842C3.69513 10.1153 3.68983 10.1463 3.68487 10.1774L4.29233 10.2718ZM4.30599 10.1919C4.41952 9.57016 4.60441 9.01121 4.95689 8.52803L4.45787 8.17329C4.03157 8.75764 3.82308 9.41447 3.7008 10.0842L4.30599 10.1919ZM4.80401 7.76604C4.67533 7.89657 4.56048 8.03252 4.45783 8.17333L4.95693 8.52799C5.04205 8.4112 5.13746 8.29822 5.24469 8.18948L4.80401 7.76604ZM10.5299 8.67887C9.4919 6.47618 6.52778 6.01824 4.80405 7.766L5.24465 8.18948C6.67757 6.73666 9.12165 7.12972 9.97235 8.93495L10.5299 8.67887ZM10.5849 8.80146C10.5672 8.76002 10.5489 8.7192 10.5299 8.67887L9.97235 8.93495C9.98813 8.96842 10.0034 9.00238 10.018 9.03687L10.5849 8.80146ZM10.6052 8.84965C10.5985 8.83361 10.5918 8.81758 10.5849 8.80159L10.018 9.0367C10.0243 9.0515 10.0305 9.06626 10.0367 9.08102L10.6052 8.84965ZM10.0368 9.08127C10.165 9.38742 10.2673 9.69313 10.3425 9.99743L10.9399 9.85342C10.8567 9.517 10.7443 9.18195 10.6051 8.8494L10.0368 9.08127ZM10.2302 14.1177C11.1141 12.7574 11.2996 11.3031 10.9399 9.85321L10.3426 9.99763C10.6647 11.2962 10.5 12.5782 9.71262 13.7899L10.2302 14.1177ZM9.71249 13.79C9.69992 13.8094 9.68717 13.8288 9.67426 13.8482L10.1879 14.182C10.2022 14.1605 10.2163 14.139 10.2303 14.1175L9.71249 13.79ZM9.67368 13.849C9.03882 14.8079 8.10196 15.1903 6.92856 15.0318L6.84519 15.6333C8.23272 15.8207 9.41232 15.3534 10.1884 14.1811L9.67368 13.849ZM6.92856 15.0318C6.88854 15.0264 6.84902 15.0204 6.81004 15.0139L6.7068 15.6123C6.75249 15.62 6.79863 15.627 6.84519 15.6333L6.92856 15.0318ZM4.12197 13.5202C4.56835 14.6722 5.44829 15.4018 6.70705 15.6124L6.80983 15.0139C5.76844 14.8396 5.06599 14.2573 4.69632 13.3033L4.12197 13.5202ZM4.69628 13.3032C4.67504 13.2484 4.6548 13.1922 4.63573 13.1347L4.05137 13.3238C4.07353 13.3905 4.09707 13.456 4.12202 13.5203L4.69628 13.3032ZM4.6359 13.1352C4.52741 12.8065 4.44871 12.4644 4.37591 12.1094L3.77318 12.2298C3.84736 12.5917 3.93161 12.9609 4.0512 13.3233L4.6359 13.1352ZM4.37591 12.1094C4.35701 12.0172 4.33973 11.9248 4.32436 11.8324L3.71753 11.9308C3.73422 12.0311 3.75287 12.1309 3.77318 12.2298L4.37591 12.1094ZM3.70776 11.8817C3.71154 11.9009 3.71532 11.9202 3.71911 11.9394L4.32278 11.8237C4.31903 11.8046 4.31524 11.7854 4.31145 11.7661L3.70776 11.8817Z" fill="#4AC4DC"/>
<path fill-rule="evenodd" clip-rule="evenodd" d="M25.7341 15.4276C27.078 14.3458 27.5237 12.8623 27.5154 10.94C27.5693 9.72122 27.1775 8.52394 26.4113 7.56679C25.4001 6.29802 23.9962 5.96605 22.4264 6.08214C20.9896 6.18776 19.882 6.83666 19.1765 8.05548C18.2193 9.70264 18.1429 11.4624 18.6897 13.2592C19.6997 16.5744 23.6822 17.0771 25.7341 15.4276ZM19.6127 11.2862V11.2559V11.2175C19.5322 9.97722 19.8036 8.83971 20.6748 7.91615C20.6817 7.90879 20.6886 7.90144 20.6956 7.89412C20.8254 7.7587 20.9736 7.63721 21.1362 7.53074C22.5974 6.57371 25.2193 6.82531 25.9877 9.05584C25.9967 9.08194 26.0054 9.10834 26.0139 9.13497C26.1362 9.52039 26.2299 9.90852 26.2893 10.2973C26.4233 11.1744 26.382 12.0547 26.0978 12.9136C26.0042 13.1967 25.8841 13.4775 25.7352 13.755C25.125 14.8937 24.122 15.4057 22.838 15.365C21.5822 15.3244 20.5863 14.7846 20.0983 13.6181C20.0957 13.6118 20.0931 13.6055 20.0905 13.5992C19.7827 12.8559 19.6127 12.0618 19.6127 11.2862Z" fill="#4AC4DC"/>
<path d="M27.5155 10.94L27.2083 10.9267L27.208 10.934L27.208 10.9413L27.5155 10.94ZM25.7341 15.4276L25.9283 15.6629L25.9284 15.6628L25.7341 15.4276ZM26.4114 7.56676L26.1697 7.75444L26.1701 7.75493L26.4114 7.56676ZM22.4265 6.08212L22.4493 6.38482H22.4495L22.4265 6.08212ZM19.1765 8.05545L19.4432 8.2065L19.4435 8.20604L19.1765 8.05545ZM18.6897 13.2592L18.3953 13.3466L18.3953 13.3467L18.6897 13.2592ZM19.6128 11.2558H19.3053V11.2559L19.6128 11.2558ZM19.6128 11.2861H19.9202H19.6128ZM19.6128 11.2175L19.9202 11.2175V11.2078L19.9196 11.1981L19.6128 11.2175ZM20.6748 7.91613L20.8998 8.123L20.9003 8.12251L20.6748 7.91613ZM20.6957 7.89409L20.4723 7.68553L20.4718 7.68607L20.6957 7.89409ZM21.1363 7.53071L21.3062 7.78371L21.3063 7.78367L21.1363 7.53071ZM25.9877 9.05581L25.6966 9.15357L25.6966 9.1537L25.9877 9.05581ZM26.014 9.13495L26.3074 9.04422L26.3073 9.04389L26.014 9.13495ZM26.2894 10.2972L26.5934 10.252L26.2894 10.2972ZM26.0979 12.9136L25.8056 12.8193L26.0979 12.9136ZM25.7353 13.755L25.4635 13.6129L25.4635 13.613L25.7353 13.755ZM22.838 15.365L22.8279 15.6684H22.8282L22.838 15.365ZM20.0984 13.618L19.8141 13.7337L19.8141 13.7339L20.0984 13.618ZM20.0906 13.5992L20.3756 13.4854L20.3752 13.4843L20.0906 13.5992ZM27.208 10.9413C27.216 12.8152 26.7836 14.1911 25.5398 15.1923L25.9284 15.6628C27.3726 14.5003 27.8314 12.9093 27.823 10.9387L27.208 10.9413ZM26.1701 7.75493C26.8905 8.65498 27.259 9.78076 27.2083 10.9267L27.8227 10.9533C27.8798 9.66166 27.4645 8.39289 26.6526 7.37856L26.1701 7.75493ZM22.4495 6.38482C23.9599 6.27312 25.2444 6.5935 26.1697 7.75444L26.653 7.37905C25.5559 6.00253 24.0326 5.65896 22.4036 5.77942L22.4495 6.38482ZM19.4435 8.20604C20.0947 7.08091 21.1071 6.48349 22.4493 6.38482L22.4037 5.77942C20.8722 5.89198 19.6693 6.59231 18.9096 7.90482L19.4435 8.20604ZM18.9842 13.1719C18.4571 11.4396 18.5356 9.76855 19.4432 8.2065L18.9098 7.90441C17.9032 9.63663 17.8289 11.4851 18.3953 13.3466L18.9842 13.1719ZM25.54 15.1922C24.5975 15.9499 23.1907 16.2243 21.8945 15.9104C20.6098 15.5992 19.4544 14.7153 18.9842 13.1718L18.3953 13.3467C18.935 15.1183 20.2759 16.1434 21.748 16.5C23.2085 16.8537 24.8189 16.5548 25.9283 15.6629L25.54 15.1922ZM19.3053 11.2559V11.2862L19.9202 11.2861V11.2558L19.3053 11.2559ZM19.9202 11.2558V11.2175L19.3053 11.2176V11.2558L19.9202 11.2558ZM19.9196 11.1981C19.8428 10.0156 20.1018 8.96898 20.8998 8.123L20.4498 7.70926C19.5054 8.71043 19.2216 9.9388 19.3059 11.2369L19.9196 11.1981ZM20.4718 7.68607C20.4643 7.69388 20.4568 7.70177 20.4494 7.70971L20.9003 8.12251C20.9067 8.11576 20.9131 8.10894 20.9196 8.10211L20.4718 7.68607ZM20.9664 7.27775C20.7858 7.39599 20.6192 7.53211 20.4723 7.68553L20.9191 8.10265C21.0316 7.98524 21.1616 7.87839 21.3062 7.78371L20.9664 7.27775ZM21.3063 7.78367C21.962 7.35414 22.8944 7.18969 23.7498 7.39303C24.5934 7.59357 25.3501 8.14771 25.6966 9.15357L26.2788 8.95809C25.8569 7.73339 24.9185 7.04646 23.8938 6.80284C22.8808 6.56201 21.7717 6.75026 20.9663 7.27779L21.3063 7.78367ZM26.3073 9.04389C26.298 9.01499 26.2886 8.98633 26.2788 8.95797L25.6966 9.1537C25.7049 9.17754 25.7129 9.20163 25.7207 9.22605L26.3073 9.04389ZM26.5934 10.252C26.5314 9.84617 26.4338 9.44279 26.3074 9.04422L25.7205 9.22572C25.8386 9.5979 25.9286 9.97082 25.9853 10.3425L26.5934 10.252ZM26.3901 13.0078C26.6914 12.0974 26.7334 11.1685 26.5934 10.252L25.9853 10.3425C26.1133 11.1803 26.0727 12.0121 25.8056 12.8193L26.3901 13.0078ZM25.8056 12.8193C25.7174 13.0859 25.6042 13.3507 25.4635 13.6129L26.007 13.8971C26.1641 13.6042 26.291 13.3074 26.3902 13.0078L25.8056 12.8193ZM25.4635 13.613C25.183 14.1364 24.8199 14.503 24.3909 14.7364C23.9606 14.9705 23.4457 15.0805 22.8479 15.0616L22.8282 15.6684C23.5144 15.6901 24.143 15.5644 24.6877 15.2681C25.2337 14.971 25.6773 14.5122 26.007 13.8969L25.4635 13.613ZM22.8481 15.0616C21.6873 15.0241 20.8153 14.5367 20.3826 13.5021L19.8141 13.7339C20.3573 15.0325 21.4772 15.6247 22.8279 15.6684L22.8481 15.0616ZM20.3826 13.5023C20.3802 13.4967 20.3779 13.491 20.3756 13.4854L19.8055 13.7129C19.8084 13.7199 19.8112 13.7268 19.8141 13.7337L20.3826 13.5023ZM19.3053 11.2861C19.3053 12.1047 19.4844 12.9377 19.8059 13.714L20.3752 13.4843C20.081 12.7739 19.9202 12.0188 19.9202 11.2861H19.3053Z" fill="#4AC4DC"/>
</g>
<defs>
<clipPath id="clip0_416_2396">
<rect width="60.8" height="19.7333" fill="white" transform="translate(0 0.866699)"/>
</clipPath>
</defs>
</svg>
