<svg width="24" height="25" viewBox="0 0 24 25" fill="none" xmlns="http://www.w3.org/2000/svg">
<path d="M16 4.04492H8C5.79086 4.04492 4 5.83578 4 8.04492V16.0449C4 18.2541 5.79086 20.0449 8 20.0449H16C18.2091 20.0449 20 18.2541 20 16.0449V8.04492C20 5.83578 18.2091 4.04492 16 4.04492Z" stroke="#2C3E50" stroke-width="1.75" stroke-linecap="round" stroke-linejoin="round"/>
<path d="M12 15.0449C13.6569 15.0449 15 13.7018 15 12.0449C15 10.3881 13.6569 9.04492 12 9.04492C10.3431 9.04492 9 10.3881 9 12.0449C9 13.7018 10.3431 15.0449 12 15.0449Z" stroke="#2C3E50" stroke-width="1.75" stroke-linecap="round" stroke-linejoin="round"/>
<path d="M16.5 7.54492V7.54592" stroke="#2C3E50" stroke-width="1.75" stroke-linecap="round" stroke-linejoin="round"/>
</svg>
