<svg width="24" height="25" viewBox="0 0 24 25" fill="none" xmlns="http://www.w3.org/2000/svg">
<path d="M9 12.0449C8.20888 12.0449 7.43552 12.2795 6.77772 12.719C6.11992 13.1586 5.60723 13.7833 5.30448 14.5142C5.00173 15.2451 4.92252 16.0494 5.07686 16.8253C5.2312 17.6012 5.61216 18.3139 6.17157 18.8733C6.73098 19.4328 7.44372 19.8137 8.21964 19.9681C8.99556 20.1224 9.79983 20.0432 10.5307 19.7404C11.2616 19.4377 11.8864 18.925 12.3259 18.2672C12.7654 17.6094 13 16.836 13 16.0449V4.04492C13 5.371 13.5268 6.64277 14.4645 7.58046C15.4021 8.51814 16.6739 9.04492 18 9.04492" stroke="#2C3E50" stroke-width="1.75" stroke-linecap="round" stroke-linejoin="round"/>
</svg>
